<svg width="27" height="20" viewBox="0 0 27 20" fill="none" xmlns="http://www.w3.org/2000/svg">
<path d="M24.4932 0H1.66059C0.743541 0 0 0.731001 0 1.63264V18.3674C0 19.269 0.743541 20 1.66059 20H24.4932C25.4103 20 26.1538 19.269 26.1538 18.3674V1.63264C26.1538 0.731001 25.4104 0 24.4932 0ZM24.4932 1.63264V13.5065L21.2207 10.5812C20.7288 10.1416 19.9724 10.1592 19.5024 10.6216L16.1904 13.8775L9.65991 6.20814C9.16627 5.62854 8.26209 5.62284 7.76105 6.19549L1.66059 13.1661V1.63264H24.4932ZM17.4359 5.91836C17.4359 4.67835 18.4579 3.67344 19.7191 3.67344C20.9804 3.67344 22.0024 4.67835 22.0024 5.91836C22.0024 7.15837 20.9804 8.16323 19.7191 8.16323C18.4579 8.16328 17.4359 7.15837 17.4359 5.91836Z" fill="#E5E5E5"/>
</svg>
