<svg width="20" height="20" viewBox="0 0 20 20" fill="none" xmlns="http://www.w3.org/2000/svg">
<path d="M9.73333 12.8085C9.575 12.8085 9.41666 12.7502 9.29166 12.6252C9.05 12.3835 9.05 11.9835 9.29166 11.7419L10.9833 10.0502L9.29166 8.35853C9.05 8.11686 9.05 7.71686 9.29166 7.4752C9.53333 7.23353 9.93333 7.23353 10.175 7.4752L12.3083 9.60853C12.55 9.85019 12.55 10.2502 12.3083 10.4919L10.175 12.6252C10.0583 12.7502 9.89166 12.8085 9.73333 12.8085Z" fill="white"/>
<path d="M11.8083 10.6748H3.33331C2.99165 10.6748 2.70831 10.3915 2.70831 10.0498C2.70831 9.70814 2.99165 9.4248 3.33331 9.4248H11.8083C12.15 9.4248 12.4333 9.70814 12.4333 10.0498C12.4333 10.3915 12.15 10.6748 11.8083 10.6748Z" fill="white"/>
<path d="M10 17.2918C9.65833 17.2918 9.375 17.0085 9.375 16.6668C9.375 16.3252 9.65833 16.0418 10 16.0418C13.5583 16.0418 16.0417 13.5585 16.0417 10.0002C16.0417 6.44183 13.5583 3.9585 10 3.9585C9.65833 3.9585 9.375 3.67516 9.375 3.3335C9.375 2.99183 9.65833 2.7085 10 2.7085C14.2917 2.7085 17.2917 5.7085 17.2917 10.0002C17.2917 14.2918 14.2917 17.2918 10 17.2918Z" fill="white"/>
</svg>
