<svg width="209" height="30" viewBox="0 0 209 30" fill="none" xmlns="http://www.w3.org/2000/svg">
<path d="M65.125 13.5558C65.125 5.79744 74.3935 0.757324 88.6644 0.757324C102.973 0.757324 112.242 5.79744 112.242 13.5558C112.242 21.4086 102.973 26.4864 88.6644 26.4864C74.3558 26.4864 65.125 21.4086 65.125 13.5558ZM100.84 13.5558C100.84 9.87483 96.1208 7.4586 88.6833 7.4586C81.2836 7.4586 76.6021 9.87483 76.6021 13.5558C76.6021 17.2934 81.3213 19.7474 88.6833 19.7474C96.1019 19.7474 100.84 17.2934 100.84 13.5558Z" fill="black"/>
<path d="M174.309 13.5558C174.309 5.79744 181.104 0.757324 191.562 0.757324C202.058 0.757324 208.834 5.79744 208.834 13.5558C208.834 21.4086 202.039 26.4864 191.562 26.4864C181.085 26.4864 174.309 21.4086 174.309 13.5558ZM200.472 13.5558C200.472 9.87483 197.018 7.4586 191.562 7.4586C186.144 7.4586 182.709 9.87483 182.709 13.5558C182.709 17.2934 186.163 19.7474 191.562 19.7474C196.999 19.7474 200.472 17.2934 200.472 13.5558Z" fill="black"/>
<path d="M116.187 1.30469H145.899C152.827 1.30469 157.036 4.74027 157.036 10.5355C157.036 16.1796 152.657 19.6152 145.729 19.6152H125.286V25.8068H116.187V1.30469ZM144.143 13.2537C146.616 13.2537 147.975 12.744 147.975 10.5355C147.975 8.28912 146.616 7.81719 144.143 7.81719H125.267V13.2537H144.143Z" fill="black"/>
<path d="M161.189 1.30469H170.288V25.8068H161.189V1.30469Z" fill="black"/>
<path d="M187.428 14.6508L191.713 10.3657L206.305 24.9575L202.02 29.2425L187.428 14.6508Z" fill="black"/>
<path d="M47.2865 1.30469H0V13.2537H9.09863V8.04372H43.6244C49.1175 8.04372 51.798 9.87477 51.798 13.518C51.798 17.2367 49.1364 19.0678 43.6244 19.0678H11.4771H9.09863H0V25.8068H47.2865C55.328 25.8068 61.1798 20.6346 61.1798 13.518C61.1798 6.43919 55.3469 1.30469 47.2865 1.30469Z" fill="black"/>
</svg>
