<svg width="209" height="29" viewBox="0 0 209 29" fill="none" xmlns="http://www.w3.org/2000/svg">
<path d="M65.125 13.2448C65.125 5.4864 74.3935 0.446289 88.6644 0.446289C102.973 0.446289 112.242 5.4864 112.242 13.2448C112.242 21.0975 102.973 26.1754 88.6644 26.1754C74.3558 26.1754 65.125 21.0975 65.125 13.2448ZM100.84 13.2448C100.84 9.5638 96.1208 7.14756 88.6833 7.14756C81.2836 7.14756 76.6021 9.5638 76.6021 13.2448C76.6021 16.9824 81.3213 19.4364 88.6833 19.4364C96.1019 19.4364 100.84 16.9824 100.84 13.2448Z" fill="white"/>
<path d="M174.309 13.2448C174.309 5.4864 181.104 0.446289 191.562 0.446289C202.058 0.446289 208.834 5.4864 208.834 13.2448C208.834 21.0975 202.039 26.1754 191.562 26.1754C181.085 26.1754 174.309 21.0975 174.309 13.2448ZM200.472 13.2448C200.472 9.5638 197.017 7.14756 191.562 7.14756C186.144 7.14756 182.709 9.5638 182.709 13.2448C182.709 16.9824 186.163 19.4364 191.562 19.4364C196.999 19.4364 200.472 16.9824 200.472 13.2448Z" fill="white"/>
<path d="M116.187 0.994141H145.899C152.826 0.994141 157.036 4.42972 157.036 10.2249C157.036 15.8691 152.657 19.3047 145.729 19.3047H125.285V25.4963H116.187V0.994141ZM144.143 12.9432C146.616 12.9432 147.975 12.4335 147.975 10.2249C147.975 7.97857 146.616 7.50665 144.143 7.50665H125.266V12.9432H144.143Z" fill="white"/>
<path d="M161.189 0.994141H170.288V25.4963H161.189V0.994141Z" fill="white"/>
<path d="M187.428 14.3397L191.713 10.0547L206.305 24.6465L202.02 28.9315L187.428 14.3397Z" fill="white"/>
<path d="M47.2865 0.994141H0V12.9432H9.09863V7.73317H43.6244C49.1175 7.73317 51.798 9.56422 51.798 13.2075C51.798 16.9262 49.1364 18.7572 43.6244 18.7572H11.4771H9.09863H0V25.4963H47.2865C55.328 25.4963 61.1798 20.324 61.1798 13.2075C61.1798 6.12864 55.3469 0.994141 47.2865 0.994141Z" fill="white"/>
</svg>
