<svg width="64" height="40" viewBox="0 0 64 40" fill="none" xmlns="http://www.w3.org/2000/svg">
<rect x="0.5" width="63" height="40" rx="10" fill="white"/>
<rect x="0.70674" y="0.20674" width="62.5865" height="39.5865" rx="9.79326" stroke="#252525" stroke-opacity="0.2" stroke-width="0.413479"/>
<path fill-rule="evenodd" clip-rule="evenodd" d="M47.1014 27.0101V24.6856H46.4921V26.0339C46.2823 25.7852 45.9552 25.6447 45.6134 25.6564C44.8046 25.6564 44.1489 26.26 44.1489 27.0047C44.1489 27.7493 44.8046 28.353 45.6134 28.353C45.9552 28.3646 46.2823 28.2241 46.4921 27.9755V28.2883H47.1014V27.0101ZM28.9284 25.7211H29.9243V26.2254H28.9343V27.4119C28.9343 27.6708 29.0456 27.8434 29.3385 27.8434C29.5287 27.8302 29.7121 27.7726 29.8716 27.6762L30.0473 28.1562C29.8189 28.2874 29.5549 28.3566 29.2857 28.3557C28.5652 28.3557 28.3133 27.9998 28.3133 27.4011V26.2254H27.745V25.7211H28.3133V24.9391H28.9284V25.7211ZM20.8272 28.307V26.689C20.848 26.4137 20.739 26.1435 20.5282 25.9474C20.3174 25.7512 20.0251 25.6481 19.7259 25.6643C19.3316 25.6405 18.9545 25.8161 18.7417 26.1227C18.5477 25.8253 18.1926 25.6494 17.8161 25.6643C17.4883 25.649 17.1763 25.7947 16.996 26.0472V25.729H16.3867V28.307H17.0018V26.8777C16.9753 26.6992 17.0368 26.5192 17.1694 26.3867C17.3019 26.2542 17.4918 26.1831 17.6872 26.1928C18.0915 26.1928 18.2965 26.4355 18.2965 26.8723V28.307H18.9116V26.8777C18.8862 26.6994 18.948 26.52 19.0803 26.3877C19.2127 26.2555 19.4019 26.1841 19.597 26.1928C20.0129 26.1928 20.2121 26.4355 20.2121 26.8723V28.307H20.8272ZM44.9864 33.6248H44.4269L44.4298 30.5938H44.0139V35.4477H44.4533V33.9619H45.0127L46.4773 35.4477H47.0074L45.3379 33.7731L46.9781 32.2765H46.4509L44.9864 33.6248ZM32.4206 32.5651C32.327 32.6439 32.2461 32.7347 32.1805 32.8347L32.1658 30.61H31.7499V35.4639H32.1658V33.6572C32.1644 33.511 32.1953 33.366 32.2566 33.2311C32.3135 33.1056 32.3972 32.9919 32.5027 32.8968C32.6076 32.8028 32.7322 32.7294 32.8688 32.681C33.0127 32.6301 33.1657 32.6044 33.3199 32.6055C33.4794 32.6027 33.6382 32.6265 33.7885 32.6756C33.9197 32.7194 34.0387 32.7894 34.1371 32.8806C34.2351 32.9729 34.3092 33.0845 34.3539 33.2069C34.4046 33.3458 34.4293 33.4917 34.4271 33.6383V35.4639H34.8459V33.5197C34.8496 33.3353 34.8138 33.152 34.7405 32.9803C34.6761 32.8282 34.5761 32.691 34.4476 32.5786C34.3146 32.4662 34.1581 32.38 33.9877 32.3251C33.7995 32.2643 33.6013 32.2342 33.4019 32.2361C33.2837 32.2362 33.1659 32.2479 33.0504 32.2711C32.9339 32.2947 32.8208 32.3309 32.7136 32.379C32.607 32.4282 32.5084 32.4908 32.4206 32.5651ZM28.5998 30.6773C28.8111 30.6776 29.0217 30.7002 29.2274 30.7448C29.4305 30.7875 29.6272 30.8527 29.8133 30.9389C29.9888 31.021 30.1522 31.1234 30.2995 31.2436C30.4437 31.3615 30.569 31.4977 30.6715 31.6481L30.2995 31.8773C30.2115 31.7536 30.1061 31.6412 29.9861 31.543C29.8653 31.4435 29.7314 31.3584 29.5877 31.2895C29.4391 31.2191 29.2817 31.1656 29.1191 31.1304C28.9493 31.0927 28.7753 31.0737 28.6006 31.0737C28.309 31.0715 28.0196 31.1209 27.7482 31.2194C27.4919 31.3117 27.2587 31.4512 27.0628 31.6292C26.8658 31.8111 26.7104 32.0275 26.6059 32.2657C26.3834 32.7948 26.3834 33.3814 26.6059 33.9106C26.7104 34.1488 26.8658 34.3652 27.0628 34.547C27.2587 34.7251 27.4919 34.8645 27.7482 34.9569C28.0196 35.0553 28.309 35.1048 28.6006 35.1025C28.7741 35.103 28.9471 35.0849 29.1161 35.0486C29.442 34.9827 29.7444 34.8417 29.9949 34.6387C30.1157 34.5401 30.2211 34.4267 30.3083 34.3016L30.6744 34.547C30.5679 34.6938 30.4409 34.8271 30.2966 34.9434C30.1496 35.0613 29.9873 35.1618 29.8133 35.2427C29.633 35.3275 29.4422 35.3918 29.245 35.4342C28.6877 35.5511 28.1052 35.5116 27.5725 35.3209C27.2622 35.208 26.9794 35.0393 26.7406 34.8248C26.5029 34.6073 26.3156 34.3477 26.19 34.0616C25.9241 33.4348 25.9241 32.7388 26.19 32.1119C26.3156 31.8259 26.5029 31.5663 26.7406 31.3488C26.9794 31.1343 27.2622 30.9656 27.5725 30.8526C27.8997 30.7346 28.2484 30.6751 28.5998 30.6773ZM28.5998 30.6773L28.5889 30.6773H28.6006L28.5998 30.6773ZM20.3475 30.7311C20.7395 30.7257 21.1297 30.7813 21.5016 30.8956C21.8271 30.9946 22.1264 31.1554 22.3803 31.3675C22.6221 31.5751 22.8111 31.8292 22.9339 32.1118C23.1925 32.7426 23.1925 33.4387 22.9339 34.0695C22.8112 34.3521 22.6221 34.6063 22.3803 34.8138C22.1264 35.0259 21.8271 35.1867 21.5016 35.2857C21.1297 35.4 20.7395 35.4556 20.3475 35.4502H18.4758V30.7311H20.3475ZM16.4919 35.4502H16.94V30.7311H16.4919V35.4502ZM47.5405 35.2913H47.4763V35.4498H47.4442V35.2913H47.38V35.2618H47.5434L47.5405 35.2913ZM47.7916 35.4498H47.7595V35.2967L47.7012 35.431H47.6661L47.6078 35.2967V35.4498H47.5757V35.2618H47.6253L47.6836 35.3961L47.742 35.2618H47.7916V35.4498ZM18.924 35.0595V31.1225L20.3504 31.1279C20.6855 31.1225 21.0192 31.1689 21.3375 31.2654C21.6058 31.3484 21.8516 31.4836 22.0581 31.6618C22.2546 31.8361 22.4058 32.0491 22.5004 32.2847C22.6988 32.8086 22.6988 33.3788 22.5004 33.9027C22.4059 34.1376 22.2547 34.3497 22.0581 34.5229C21.851 34.7004 21.6054 34.8355 21.3375 34.9193C21.0186 35.0176 20.6838 35.0651 20.3475 35.0595H18.924ZM37.5819 32.236C37.8015 32.234 38.019 32.2745 38.2205 32.3547C38.4138 32.4323 38.5874 32.5462 38.7302 32.6891C38.8778 32.8384 38.9931 33.0123 39.0699 33.2014C39.1552 33.41 39.1989 33.6311 39.1988 33.854V33.9376V34.0131H36.3107C36.322 34.183 36.3677 34.3495 36.4455 34.5039C36.5159 34.6427 36.6154 34.7673 36.7384 34.8706C36.8586 34.9703 36.9989 35.0472 37.1514 35.0971C37.3102 35.1496 37.4777 35.176 37.6464 35.1753C37.8692 35.1788 38.0901 35.1374 38.2937 35.054C38.4852 34.9719 38.6597 34.8597 38.8092 34.7223L39.0318 34.992C38.9306 35.0871 38.8186 35.172 38.6979 35.2455C38.5884 35.3108 38.4716 35.3651 38.3494 35.4073C38.2329 35.4469 38.1121 35.4749 37.9891 35.4909C37.8668 35.5067 37.7435 35.5148 37.62 35.5151C37.3824 35.5177 37.1466 35.4774 36.9258 35.3965C36.7203 35.3207 36.5339 35.2069 36.3781 35.0621C36.2221 34.9146 36.1005 34.7393 36.0207 34.547C35.9328 34.3354 35.889 34.1103 35.8919 33.8837C35.8891 33.6588 35.9328 33.4355 36.0207 33.2257C36.0976 33.0299 36.2161 32.8503 36.3693 32.6971C36.5229 32.5511 36.7073 32.4354 36.9112 32.3574C37.1267 32.2719 37.359 32.2278 37.5937 32.2279L37.5819 32.236ZM37.1013 32.6595C37.2539 32.6029 37.4171 32.5745 37.5816 32.5759C37.8877 32.574 38.1818 32.6847 38.3989 32.8833C38.5077 32.9834 38.5951 33.1014 38.6566 33.2312C38.7241 33.3739 38.7647 33.5262 38.7767 33.6815H36.3133C36.3309 33.5273 36.3765 33.3769 36.4481 33.2366C36.5144 33.1066 36.6057 32.9887 36.7176 32.8887C36.8285 32.7905 36.9587 32.7127 37.1013 32.6595ZM41.7529 32.2359C41.997 32.2339 42.239 32.277 42.4647 32.3627C42.679 32.4442 42.8704 32.5696 43.0241 32.7294L42.7547 32.9991C42.6248 32.8783 42.4719 32.7805 42.3036 32.7106C42.1271 32.6403 41.9364 32.6054 41.7441 32.6081C41.564 32.6073 41.3856 32.6403 41.2198 32.7052C41.061 32.7682 40.9176 32.8599 40.798 32.9748C40.6718 33.0901 40.5721 33.2277 40.5051 33.3793C40.3707 33.7088 40.3707 34.0719 40.5051 34.4013C40.6308 34.7024 40.8848 34.9431 41.2081 35.0674C41.3738 35.1325 41.5523 35.1655 41.7324 35.1645C41.9271 35.1665 42.1199 35.1297 42.2977 35.0566C42.4672 34.9869 42.6219 34.8901 42.7547 34.7708L43.0154 35.0404C42.8608 35.1995 42.6697 35.3248 42.4559 35.4072C42.2313 35.4928 41.9902 35.5359 41.7471 35.5339C41.5032 35.5366 41.2612 35.4945 41.0353 35.4099C40.6126 35.2517 40.2791 34.9407 40.1126 34.5497C39.9394 34.1311 39.9394 33.6685 40.1126 33.2499C40.2781 32.8576 40.6119 32.5454 41.0353 32.387C41.2621 32.2888 41.5083 32.2347 41.7588 32.2279L41.7529 32.2359ZM35.121 25.6565C34.8184 25.6483 34.5352 25.7931 34.3829 26.034V25.7212H33.7795V28.2992H34.3887V26.8538C34.3887 26.4277 34.5879 26.1904 34.9745 26.1904C35.1049 26.1888 35.2342 26.2108 35.3553 26.2551L35.5428 25.7158C35.4036 25.67 35.2571 25.6463 35.1093 25.6457L35.121 25.6565ZM26.1232 25.656C26.5242 25.6433 26.9207 25.7369 27.2656 25.9257L26.9961 26.3787C26.7286 26.237 26.426 26.1609 26.1174 26.1576C25.7835 26.1576 25.5843 26.287 25.5843 26.4596C25.5843 26.6322 25.7952 26.6807 26.0588 26.7131L26.3517 26.7508C26.961 26.8317 27.33 27.0313 27.33 27.5221C27.33 28.0129 26.8614 28.3634 26.0529 28.3634C25.6203 28.3744 25.1952 28.2572 24.8403 28.0291L25.1332 27.5922C25.402 27.7758 25.7301 27.8708 26.0647 27.8619C26.4806 27.8619 26.7032 27.7486 26.7032 27.5491C26.7032 27.4034 26.545 27.3225 26.2111 27.2794L25.9182 27.2416C25.2914 27.1607 24.9516 26.9019 24.9516 26.4812C24.9516 25.9688 25.4144 25.656 26.1232 25.656ZM43.5831 25.6565C43.2805 25.6483 42.9972 25.7931 42.8449 26.034V25.7212H42.2415V28.2992H42.8508V26.8538C42.8508 26.4277 43.05 26.1904 43.4366 26.1904C43.5669 26.1888 43.6963 26.2108 43.8174 26.2551L44.0049 25.7158C43.8657 25.67 43.7191 25.6463 43.5714 25.6457L43.5831 25.6565ZM36.1568 27.9824C35.8724 27.7258 35.7187 27.3707 35.7334 27.0044V26.9936C35.7187 26.6273 35.8724 26.2723 36.1568 26.0156C36.4411 25.759 36.8297 25.6246 37.2272 25.6453C37.593 25.6282 37.9525 25.7379 38.2348 25.9527L37.9419 26.4058C37.7313 26.2579 37.4745 26.1766 37.2097 26.1738C36.7427 26.2086 36.3829 26.5677 36.3829 26.999C36.3829 27.4303 36.7427 27.7894 37.2097 27.8242C37.4745 27.8215 37.7313 27.7401 37.9419 27.5923L38.2348 28.0453C37.9525 28.2602 37.593 28.3699 37.2272 28.3527C36.8297 28.3735 36.4411 28.239 36.1568 27.9824ZM41.4398 27.005V25.716H40.8306V26.0289C40.6207 25.7802 40.2937 25.6397 39.9518 25.6513C39.143 25.6513 38.4873 26.255 38.4873 26.9996C38.4873 27.7443 39.143 28.348 39.9518 28.348C40.2937 28.3596 40.6207 28.2191 40.8306 27.9704V28.2832H41.4398V27.005ZM40.0488 26.2715C39.5887 26.2556 39.1991 26.5812 39.172 27.0044C39.1565 27.2198 39.2393 27.4314 39.4006 27.588C39.5619 27.7447 39.787 27.8323 40.0214 27.8295C40.4819 27.8273 40.856 27.4867 40.8634 27.0628C40.8709 26.639 40.5089 26.2874 40.0488 26.2715ZM31.8198 25.6564C31.011 25.6668 30.3645 26.279 30.3758 27.0236C30.3871 27.7683 31.052 28.3635 31.8608 28.353C32.2788 28.3666 32.6875 28.2379 33.009 27.9917L32.7161 27.5764C32.4848 27.7472 32.1983 27.8421 31.9018 27.8461C31.4831 27.8792 31.1117 27.5995 31.0641 27.2151H33.1467V26.9993C33.1467 26.1904 32.6019 25.651 31.8169 25.651L31.8198 25.6564ZM32.3157 26.3353C32.1828 26.218 32.0046 26.1541 31.8205 26.1577H31.8088C31.4173 26.1454 31.0869 26.4233 31.0648 26.7833H32.5294C32.5255 26.6138 32.4487 26.4527 32.3157 26.3353ZM45.7104 26.277C45.2502 26.261 44.8607 26.5867 44.8336 27.0099C44.8181 27.2253 44.9009 27.4369 45.0622 27.5935C45.2235 27.7502 45.4486 27.8378 45.683 27.835C46.1435 27.8328 46.5176 27.4922 46.525 27.0683C46.5325 26.6445 46.1705 26.2929 45.7104 26.277ZM24.2639 27.0103V25.7213H23.6546V26.0341C23.4448 25.7855 23.1177 25.645 22.7759 25.6566C21.9671 25.6566 21.3114 26.2602 21.3114 27.0049C21.3114 27.7495 21.9671 28.3532 22.7759 28.3532C23.1177 28.3648 23.4448 28.2243 23.6546 27.9757V28.2885H24.2639V27.0103ZM22.8729 26.277C22.4127 26.261 22.0232 26.5867 21.9961 27.0099C21.9806 27.2253 22.0634 27.4369 22.2247 27.5935C22.386 27.7502 22.6111 27.8378 22.8455 27.835C23.306 27.8328 23.6801 27.4922 23.6875 27.0683C23.695 26.6445 23.333 26.2929 22.8729 26.277ZM48.1146 27.9238C48.1527 27.9233 48.1905 27.9297 48.2259 27.9426C48.2595 27.9553 48.2903 27.9736 48.3167 27.9966C48.3424 28.0198 48.3633 28.0472 48.3782 28.0775C48.4082 28.1411 48.4082 28.2134 48.3782 28.277C48.3633 28.3072 48.3424 28.3347 48.3167 28.3579C48.2903 28.3809 48.2595 28.3992 48.2259 28.4118C48.1908 28.4261 48.1529 28.4334 48.1146 28.4334C48.0012 28.4326 47.8986 28.3717 47.851 28.277C47.8213 28.2133 47.8213 28.1412 47.851 28.0775C47.8659 28.0472 47.8867 28.0198 47.9125 27.9966C47.9388 27.9736 47.9696 27.9553 48.0033 27.9426C48.0387 27.9297 48.0765 27.9233 48.1146 27.9238ZM48.1991 28.3637C48.1723 28.3745 48.1434 28.3801 48.1141 28.3799V28.3826C48.0847 28.3817 48.0558 28.3752 48.0292 28.3637C48.0029 28.3537 47.979 28.3391 47.9589 28.3206C47.8829 28.2443 47.8829 28.1272 47.9589 28.0509C47.979 28.0324 48.0029 28.0177 48.0292 28.0078C48.056 27.9972 48.0849 27.9917 48.1141 27.9916C48.1433 27.9915 48.1723 27.997 48.1991 28.0078C48.2243 28.0181 48.2472 28.0327 48.2664 28.0509C48.3424 28.1272 48.3424 28.2443 48.2664 28.3206C48.2471 28.3387 48.2243 28.3534 48.1991 28.3637ZM48.1321 28.0591C48.1593 28.0578 48.1862 28.0654 48.2079 28.0805C48.2261 28.0944 48.2358 28.1154 48.2342 28.137C48.235 28.155 48.2276 28.1725 48.2138 28.1853C48.1969 28.1995 48.1753 28.208 48.1525 28.2095L48.2371 28.2981H48.17L48.0912 28.2095H48.065V28.2981H48.0095V28.0617L48.1321 28.0591ZM48.0679 28.1689V28.1045L48.1321 28.1206C48.1435 28.1175 48.1557 28.1175 48.1671 28.1206C48.1713 28.1282 48.1713 28.1372 48.1671 28.1448C48.1713 28.1524 48.1713 28.1613 48.1671 28.1689C48.1557 28.1721 48.1435 28.1721 48.1321 28.1689H48.0679Z" fill="#252525"/>
<rect x="27.0674" y="6.07617" width="9.22666" height="15.2656" fill="#FF5F00"/>
<path d="M27.6545 13.7103C27.6511 10.731 29.1363 7.9157 31.682 6.07618C27.3586 2.94811 21.15 3.40374 17.4195 7.12287C13.6889 10.842 13.6889 16.576 17.4195 20.2951C21.15 24.0142 27.3586 24.4699 31.682 21.3418C29.1371 19.5029 27.652 16.6888 27.6545 13.7103Z" fill="#987727"/>
<path d="M48.7436 13.7104C48.7435 17.4273 46.4383 20.8178 42.8069 22.4421C39.1755 24.0663 34.8555 23.6391 31.6816 21.3419C34.2254 19.5014 35.7107 16.6877 35.7107 13.7091C35.7107 10.7305 34.2254 7.91675 31.6816 6.07626C34.8555 3.77903 39.1755 3.35182 42.8069 4.97606C46.4383 6.60031 48.7435 9.99085 48.7436 13.7077V13.7104Z" fill="#F79E1B"/>
</svg>
