<svg width="59" height="40" viewBox="0 0 59 40" fill="none" xmlns="http://www.w3.org/2000/svg">
<rect x="0.866699" width="57.931" height="40" rx="10" fill="white"/>
<rect x="1.07344" y="0.20674" width="57.5176" height="39.5865" rx="9.79326" stroke="#252525" stroke-opacity="0.2" stroke-width="0.413479"/>
<path fill-rule="evenodd" clip-rule="evenodd" d="M27.2741 20.2567L27.5263 18.6482L26.9645 18.6351H24.2817L26.1462 6.76554C26.152 6.7296 26.1708 6.69623 26.1982 6.6725C26.2257 6.64876 26.2609 6.63574 26.2976 6.63574H30.8212C32.323 6.63574 33.3594 6.94946 33.9004 7.56875C34.1541 7.85927 34.3157 8.16295 34.3939 8.49701C34.4759 8.84762 34.4772 9.26645 34.3973 9.77738L34.3914 9.81454V10.142L34.6451 10.2863C34.8587 10.4001 35.0285 10.5303 35.1587 10.6793C35.3757 10.9278 35.516 11.2436 35.5753 11.6178C35.6366 12.0027 35.6164 12.4608 35.516 12.9795C35.4003 13.576 35.2132 14.0956 34.9604 14.5207C34.7281 14.9124 34.432 15.2374 34.0803 15.4891C33.7447 15.7283 33.3459 15.91 32.895 16.0262C32.458 16.1404 31.9598 16.198 31.4134 16.198H31.0613C30.8097 16.198 30.5652 16.289 30.3732 16.4522C30.1807 16.6188 30.0535 16.8464 30.0144 17.0952L29.9878 17.2401L29.5422 20.0752L29.5221 20.1792C29.5167 20.2122 29.5075 20.2286 29.494 20.2397C29.4819 20.2499 29.4646 20.2567 29.4478 20.2567H27.2741Z" fill="#28356A"/>
<path fill-rule="evenodd" clip-rule="evenodd" d="M34.8851 9.85156C34.8717 9.93823 34.8562 10.0268 34.8389 10.1178C34.2424 13.1931 32.2014 14.2555 29.5948 14.2555H28.2676C27.9488 14.2555 27.6801 14.4879 27.6305 14.8036L26.7586 20.357C26.7263 20.5644 26.8854 20.7512 27.0937 20.7512H29.4477C29.7264 20.7512 29.9632 20.5479 30.0071 20.2719L30.0302 20.1518L30.4734 17.3278L30.5019 17.173C30.5452 16.896 30.7826 16.6925 31.0613 16.6925H31.4133C33.6939 16.6925 35.4793 15.7629 36.0012 13.0725C36.2191 11.9487 36.1063 11.0103 35.5295 10.3503C35.3549 10.1513 35.1384 9.98611 34.8851 9.85156Z" fill="#298FC2"/>
<path fill-rule="evenodd" clip-rule="evenodd" d="M34.262 9.60267C34.1708 9.57595 34.0768 9.55181 33.9803 9.52997C33.8833 9.50868 33.784 9.48983 33.6818 9.47328C33.3239 9.41523 32.9318 9.3877 32.5118 9.3877H28.9662C28.8789 9.3877 28.7959 9.4075 28.7217 9.4433C28.5582 9.52224 28.4367 9.67768 28.4073 9.86797L27.653 14.6647L27.6313 14.8045C27.6809 14.4888 27.9496 14.2565 28.2684 14.2565H29.5956C32.2022 14.2565 34.2432 13.1935 34.8397 10.1187C34.8575 10.0277 34.8725 9.93917 34.8859 9.8525C34.735 9.77207 34.5716 9.70331 34.3956 9.64472C34.3521 9.6302 34.3072 9.61623 34.262 9.60267Z" fill="#22284F"/>
<path fill-rule="evenodd" clip-rule="evenodd" d="M28.4065 9.86762C28.4359 9.67733 28.5574 9.52189 28.721 9.4435C28.7957 9.40755 28.8781 9.38775 28.9655 9.38775H32.511C32.931 9.38775 33.3231 9.41542 33.681 9.47347C33.7832 9.48988 33.8825 9.50887 33.9795 9.53017C34.076 9.55187 34.17 9.57614 34.2612 9.60273C34.3064 9.61629 34.3513 9.6304 34.3952 9.64437C34.5712 9.70296 34.7348 9.77227 34.8857 9.85215C35.0632 8.7157 34.8842 7.94192 34.2722 7.24125C33.5975 6.46978 32.3798 6.13965 30.8216 6.13965H26.2979C25.9797 6.13965 25.7082 6.37199 25.659 6.68828L23.7748 18.6799C23.7377 18.9171 23.9199 19.1311 24.1582 19.1311H26.9509L28.4065 9.86762Z" fill="#28356A"/>
<path fill-rule="evenodd" clip-rule="evenodd" d="M13.9465 23.5205H10.6483C10.4225 23.5205 10.2306 23.6852 10.1953 23.909L8.86136 32.4006C8.83488 32.5682 8.96416 32.7192 9.13342 32.7192H10.708C10.9337 32.7192 11.1256 32.5547 11.1609 32.3305L11.5206 30.04C11.5553 29.8158 11.7477 29.6512 11.973 29.6512H13.0171C15.1897 29.6512 16.4435 28.5956 16.7711 26.5039C16.9186 25.5886 16.7773 24.8696 16.3504 24.366C15.8817 23.8131 15.0502 23.5205 13.9465 23.5205ZM14.3273 26.622C14.147 27.8103 13.2428 27.8103 12.3685 27.8103H11.8707L12.2199 25.5911C12.2407 25.4569 12.3563 25.3582 12.4914 25.3582H12.7196C13.3152 25.3582 13.877 25.3582 14.1673 25.699C14.3404 25.9023 14.3934 26.2045 14.3273 26.622Z" fill="#28356A"/>
<path fill-rule="evenodd" clip-rule="evenodd" d="M23.8887 26.5203H22.3093C22.1748 26.5203 22.0584 26.619 22.0378 26.7532L21.9678 27.1967L21.8574 27.036C21.5155 26.5376 20.753 26.3711 19.9921 26.3711C18.2466 26.3711 16.756 27.6984 16.4657 29.5602C16.3148 30.4889 16.5293 31.377 17.0541 31.9963C17.5354 32.5657 18.2241 32.803 19.0434 32.803C20.4497 32.803 21.2294 31.8951 21.2294 31.8951L21.1591 32.3358C21.1326 32.5042 21.2619 32.6553 21.4302 32.6553H22.8527C23.079 32.6553 23.27 32.4907 23.3057 32.2665L24.1593 26.8389C24.1863 26.6718 24.0574 26.5203 23.8887 26.5203ZM21.6878 29.6066C21.5354 30.5124 20.8193 31.1206 19.9059 31.1206C19.4472 31.1206 19.0808 30.9729 18.8453 30.6931C18.6119 30.4152 18.5233 30.0196 18.5974 29.5789C18.7398 28.6807 19.4679 28.0526 20.3674 28.0526C20.8159 28.0526 21.1805 28.2024 21.4207 28.4845C21.6613 28.7697 21.7568 29.1678 21.6878 29.6066Z" fill="#28356A"/>
<path fill-rule="evenodd" clip-rule="evenodd" d="M32.1796 26.6553H30.5923C30.4409 26.6553 30.2986 26.7308 30.2129 26.8572L28.0238 30.0946L27.0959 26.9835C27.0376 26.7889 26.8587 26.6553 26.6561 26.6553H25.0965C24.9069 26.6553 24.7753 26.8412 24.8356 27.0204L26.5838 32.1714L24.9402 34.501C24.811 34.6845 24.9412 34.9368 25.1645 34.9368H26.7497C26.9002 34.9368 27.0409 34.8631 27.1263 34.7393L32.4051 27.0886C32.5316 26.9056 32.4018 26.6553 32.1796 26.6553Z" fill="#28356A"/>
<path fill-rule="evenodd" clip-rule="evenodd" d="M37.4708 23.5205H34.1721C33.9469 23.5205 33.755 23.6852 33.7197 23.909L32.3858 32.4006C32.3593 32.5682 32.4886 32.7192 32.6569 32.7192H34.3496C34.5067 32.7192 34.6413 32.604 34.6659 32.4471L35.0445 30.04C35.0792 29.8158 35.2717 29.6512 35.4969 29.6512H36.5406C38.7135 29.6512 39.967 28.5956 40.295 26.5039C40.443 25.5886 40.3008 24.8696 39.8739 24.366C39.4056 23.8131 38.5747 23.5205 37.4708 23.5205ZM37.8512 26.6221C37.6713 27.8104 36.767 27.8104 35.8922 27.8104H35.3951L35.7447 25.5912C35.7654 25.457 35.8802 25.3583 36.0157 25.3583H36.2438C36.8389 25.3583 37.4013 25.3583 37.6915 25.6991C37.8647 25.9025 37.9173 26.2046 37.8512 26.6221Z" fill="#298FC2"/>
<path fill-rule="evenodd" clip-rule="evenodd" d="M47.412 26.5203H45.8335C45.698 26.5203 45.5828 26.619 45.5625 26.7532L45.4926 27.1967L45.3817 27.036C45.0398 26.5376 44.2777 26.3711 43.5167 26.3711C41.7714 26.3711 40.2813 27.6984 39.991 29.5602C39.8405 30.4889 40.0541 31.377 40.5787 31.9963C41.0611 32.5657 41.7487 32.803 42.5681 32.803C43.9743 32.803 44.7542 31.8951 44.7542 31.8951L44.6838 32.3358C44.6573 32.5042 44.7865 32.6553 44.9559 32.6553H46.378C46.6032 32.6553 46.7952 32.4907 46.8304 32.2665L47.6844 26.8389C47.7105 26.6718 47.5812 26.5203 47.412 26.5203ZM45.2099 29.6065C45.0584 30.5124 44.3413 31.1206 43.4278 31.1206C42.9702 31.1206 42.6027 30.9729 42.3673 30.6931C42.134 30.4152 42.0462 30.0195 42.1194 29.5789C42.2627 28.6807 42.9899 28.0526 43.8894 28.0526C44.3379 28.0526 44.7025 28.2023 44.9427 28.4845C45.1842 28.7697 45.2797 29.1678 45.2099 29.6065Z" fill="#298FC2"/>
<path fill-rule="evenodd" clip-rule="evenodd" d="M49.1418 23.7539L47.7881 32.401C47.7616 32.5686 47.8908 32.7196 48.0591 32.7196H49.4201C49.6463 32.7196 49.8382 32.5551 49.8729 32.3309L51.2078 23.8396C51.2344 23.672 51.1051 23.5205 50.9368 23.5205H49.4129C49.2784 23.5209 49.1626 23.6198 49.1418 23.7539Z" fill="#298FC2"/>
</svg>
