<svg width="59" height="40" viewBox="0 0 59 40" fill="none" xmlns="http://www.w3.org/2000/svg">
<rect x="0.566904" y="0.4004" width="57.1302" height="39.1992" rx="7.2496" fill="white" stroke="#09328E" stroke-width="0.800801"/>
<path d="M25.8877 27.4323H22.0308L24.4431 13.4316H28.2998L25.8877 27.4323Z" fill="#15195A"/>
<path d="M39.8689 13.7748C39.1082 13.4915 37.9016 13.1787 36.4096 13.1787C32.6008 13.1787 29.9187 15.0851 29.9022 17.8106C29.8706 19.8215 31.8226 20.9385 33.2825 21.609C34.7746 22.2941 35.2819 22.7413 35.2819 23.352C35.2667 24.29 34.0761 24.7223 32.9657 24.7223C31.4258 24.7223 30.6008 24.4994 29.3469 23.9776L28.839 23.7539L28.2993 26.8967C29.2039 27.2836 30.8705 27.6268 32.6008 27.6419C36.6477 27.6419 39.2824 25.765 39.3136 22.8605C39.329 21.2667 38.2983 20.0454 36.0762 19.0475C34.7272 18.4069 33.9011 17.9749 33.9011 17.3195C33.9169 16.7236 34.5998 16.1133 36.1226 16.1133C37.3764 16.0834 38.2977 16.3663 38.9956 16.6494L39.3444 16.7981L39.8689 13.7748Z" fill="#15195A"/>
<path fill-rule="evenodd" clip-rule="evenodd" d="M46.7736 13.4316H49.7569L52.8684 27.4322H49.2973C49.2973 27.4322 48.9479 25.8235 48.8371 25.332H43.8852C43.742 25.7041 43.0757 27.4322 43.0757 27.4322H39.0288L44.7577 14.5933C45.1547 13.6846 45.8536 13.4316 46.7736 13.4316ZM46.5363 18.5553C46.5363 18.5553 45.3141 21.6683 44.9965 22.4726H48.2023C48.0437 21.7726 47.3133 18.4213 47.3133 18.4213L47.0438 17.2149C46.9303 17.5256 46.7661 17.9527 46.6554 18.2407C46.5804 18.436 46.5299 18.5674 46.5363 18.5553Z" fill="#15195A"/>
<path d="M11.5249 13.4316C12.366 13.4611 13.0489 13.7143 13.271 14.6084L14.6196 21.043L15.0327 22.9785L18.8101 13.4316H22.8882L16.8257 27.418H12.7476L9.30908 15.251C8.12322 14.6003 6.76943 14.078 5.25635 13.7148L5.31982 13.4316H11.5249Z" fill="#15195A"/>
</svg>
