<svg width="32" height="31" viewBox="0 0 32 31" fill="none" xmlns="http://www.w3.org/2000/svg">
<path d="M14.1906 16.2861C14.1906 17.5132 13.3114 18.5117 12.2061 18.5117C11.1181 18.5117 10.2217 17.5132 10.2217 16.2861C10.2217 15.0596 11.1008 14.0605 12.2061 14.0605C13.3198 14.0605 14.2079 15.0686 14.1906 16.2861Z" fill="white"/>
<path d="M21.5275 16.2861C21.5275 17.5132 20.6573 18.5117 19.543 18.5117C18.455 18.5117 17.5586 17.5132 17.5586 16.2861C17.5586 15.0596 18.4377 14.0605 19.543 14.0605C20.6573 14.0605 21.5448 15.0686 21.5275 16.2861Z" fill="white"/>
<path d="M15.8676 0.167969C7.42966 0.167969 0.588867 7.00876 0.588867 15.4467C0.588867 23.8845 7.42966 30.7253 15.8676 30.7253C24.3054 30.7253 31.1462 23.8845 31.1462 15.4467C31.1462 7.00876 24.3054 0.167969 15.8676 0.167969ZM26.7841 21.0717C24.8957 22.4587 23.0658 23.3009 21.2616 23.8589C21.233 23.8678 21.202 23.8571 21.1841 23.8326C20.7675 23.2525 20.3891 22.6408 20.0573 21.9986C20.0382 21.961 20.0555 21.9156 20.0949 21.9007C20.6959 21.6733 21.2676 21.4018 21.8179 21.0807C21.8615 21.055 21.8638 20.9929 21.8239 20.9631C21.7075 20.8766 21.5917 20.7852 21.4813 20.6939C21.4604 20.6772 21.4323 20.6736 21.4091 20.685C17.8377 22.3352 13.9255 22.3352 10.3117 20.685C10.2884 20.6748 10.2604 20.6784 10.2407 20.6951C10.1303 20.7858 10.0145 20.8766 9.89872 20.9631C9.85873 20.9929 9.86172 21.055 9.90529 21.0807C10.4556 21.3958 11.0273 21.6733 11.6277 21.9013C11.6671 21.9162 11.6856 21.961 11.6659 21.9986C11.3418 22.642 10.9629 23.2531 10.5385 23.8332C10.52 23.8571 10.4896 23.8678 10.4609 23.8589C8.66509 23.3009 6.83582 22.4587 4.94687 21.0717C4.93136 21.0592 4.92002 21.0401 4.91823 21.0198C4.53387 16.8999 5.3181 12.7287 8.18046 8.45188C8.18763 8.44054 8.19777 8.43159 8.21031 8.42682C9.61821 7.77986 11.1276 7.30419 12.7044 7.03263C12.733 7.02846 12.7617 7.04159 12.7766 7.06665C12.9718 7.41221 13.1944 7.85446 13.3454 8.21614C15.0075 7.96249 16.6959 7.96249 18.3933 8.21614C18.5437 7.86222 18.7586 7.41221 18.9525 7.06665C18.9675 7.04039 18.9961 7.02726 19.0247 7.03263C20.6028 7.30479 22.1121 7.78105 23.5194 8.42682C23.532 8.43159 23.5421 8.44054 23.5481 8.45308C26.0416 12.1206 27.2735 16.2577 26.8127 21.021C26.8109 21.0413 26.8008 21.0592 26.7841 21.0717Z" fill="white"/>
</svg>
