<svg width="17" height="16" viewBox="0 0 17 16" fill="none" xmlns="http://www.w3.org/2000/svg">
<path d="M8.14764 0.274414C5.97593 0.274414 5.70408 0.283209 4.85102 0.318389C3.99795 0.356501 3.41987 0.482563 2.91054 0.667259C2.38557 0.857818 1.93873 1.11581 1.49189 1.5321C1.04505 1.9484 0.773195 2.36763 0.570086 2.86308C0.373225 3.34095 0.238861 3.88624 0.198239 4.68366C0.157617 5.484 0.151367 5.73906 0.151367 7.77657C0.151367 9.81409 0.160741 10.0691 0.198239 10.8695C0.238861 11.6669 0.373225 12.2122 0.570086 12.6901C0.773195 13.1826 1.04817 13.6018 1.49189 14.021C1.93561 14.4373 2.38245 14.6953 2.91054 14.8859C3.41987 15.0706 4.00108 15.1966 4.85102 15.2348C5.70408 15.2729 5.97593 15.2787 8.14764 15.2787C10.3194 15.2787 10.5912 15.2699 11.4443 15.2348C12.2942 15.1966 12.8754 15.0706 13.3848 14.8859C13.9097 14.6953 14.3566 14.4373 14.8034 14.021C15.2471 13.6047 15.5221 13.1855 15.7252 12.6901C15.9221 12.2122 16.0564 11.6669 16.097 10.8695C16.1377 10.0691 16.1439 9.81409 16.1439 7.77657C16.1439 5.73906 16.1345 5.484 16.097 4.68366C16.0564 3.88624 15.9221 3.34095 15.7252 2.86308C15.5221 2.37056 15.2471 1.95133 14.8034 1.5321C14.3597 1.11581 13.9128 0.857818 13.3848 0.667259C12.8754 0.482563 12.2942 0.356501 11.4443 0.318389C10.5912 0.283209 10.3194 0.274414 8.14764 0.274414ZM8.14764 1.62592C10.2819 1.62592 10.5381 1.63471 11.3818 1.66989C12.163 1.70507 12.5848 1.82527 12.866 1.93081C13.241 2.06567 13.5066 2.22984 13.7878 2.49076C14.066 2.75461 14.2409 3.00381 14.3847 3.35561C14.494 3.61946 14.6253 4.01523 14.6597 4.74815C14.6972 5.53971 14.7065 5.77717 14.7065 7.78244C14.7065 9.7877 14.6972 10.0252 14.6565 10.8167C14.6159 11.5496 14.4847 11.9454 14.3753 12.2093C14.2253 12.5611 14.0566 12.8103 13.7753 13.0741C13.4972 13.335 13.2254 13.4992 12.8567 13.6341C12.5754 13.7367 12.1473 13.8598 11.3662 13.8921C10.5162 13.9272 10.2662 13.936 8.12577 13.936C5.9853 13.936 5.73532 13.9272 4.88539 13.8891C4.1042 13.851 3.6761 13.7279 3.39487 13.6253C3.01678 13.4845 2.7543 13.3262 2.47619 13.0624C2.19496 12.8015 2.01685 12.5464 1.87624 12.2005C1.76687 11.9366 1.63563 11.535 1.59501 10.8021C1.56376 10.0134 1.55439 9.77011 1.55439 7.77364C1.55439 5.77424 1.56376 5.53091 1.59501 4.73349C1.63563 4.00058 1.76375 3.59894 1.87624 3.33508C2.01685 2.97742 2.19496 2.73409 2.47619 2.47024C2.7543 2.20932 3.01678 2.03928 3.39487 1.90736C3.6761 1.80475 4.09482 1.68162 4.87601 1.64351C5.72595 1.61419 5.97593 1.6054 8.1164 1.6054L8.14764 1.62592ZM8.14764 3.92435C5.87906 3.92435 4.03858 5.65111 4.03858 7.77951C4.03858 9.9079 5.87906 11.6347 8.14764 11.6347C10.4162 11.6347 12.2567 9.9079 12.2567 7.77951C12.2567 5.65111 10.4162 3.92435 8.14764 3.92435ZM8.14764 10.2802C6.67588 10.2802 5.48222 9.16033 5.48222 7.77951C5.48222 6.39869 6.67588 5.27879 8.14764 5.27879C9.61941 5.27879 10.8131 6.39869 10.8131 7.77951C10.8131 9.16033 9.61941 10.2802 8.14764 10.2802ZM13.3785 3.77484C13.3785 4.27322 12.9473 4.67486 12.4192 4.67486C11.888 4.67486 11.4599 4.27029 11.4599 3.77484C11.4599 3.27938 11.8911 2.87481 12.4192 2.87481C12.9473 2.87188 13.3785 3.27645 13.3785 3.77484Z" fill="#111111"/>
</svg>
