<svg width="17" height="16" viewBox="0 0 17 16" fill="none" xmlns="http://www.w3.org/2000/svg">
<path d="M16.6075 0.89251C16.334 0.641926 15.9453 0.55842 15.593 0.674531L0.645373 5.60191C0.238004 5.73618 -0.0382464 6.09982 -0.0584007 6.52824C-0.0785217 6.9567 0.162367 7.34467 0.555293 7.51663L4.25196 9.13402C4.26999 9.2177 5.3312 14.1396 5.36729 14.3069C5.41361 14.5218 5.52268 14.7132 5.75374 14.7721C5.98746 14.8316 6.15258 14.7039 6.32696 14.5733C6.42401 14.5007 9.0702 12.5192 9.0702 12.5192L12.2773 15.1436C12.4641 15.2965 12.6924 15.3762 12.9251 15.3762C13.036 15.3762 13.1479 15.3581 13.2567 15.3212C13.5943 15.2068 13.8445 14.9313 13.9261 14.5843L16.9132 1.88409C16.9981 1.523 16.881 1.14309 16.6075 0.89251ZM6.56592 10.0608C6.5641 10.0651 6.5623 10.07 6.56061 10.0759L5.94223 12.2363L5.25214 9.03571L9.99743 6.39921L6.67974 9.86821C6.62748 9.92286 6.58903 9.98894 6.56592 10.0608ZM6.76219 13.0001L7.04305 12.0188L7.3117 11.0802L8.27429 11.8679L6.76219 13.0001ZM15.9413 1.65545L12.9542 14.3557C12.9527 14.362 12.9507 14.3707 12.9361 14.3757C12.9216 14.3806 12.9146 14.375 12.9096 14.3709L9.40031 11.4992C9.40021 11.4991 9.40014 11.499 9.40004 11.499L7.77412 10.1684L12.9977 4.70659C13.1683 4.52819 13.1829 4.2519 13.0321 4.0565C12.8812 3.86107 12.6102 3.80525 12.3945 3.92518L4.65976 8.22263L0.955523 6.60189C0.944234 6.59697 0.938025 6.59422 0.938922 6.57512C0.939818 6.5561 0.946259 6.55394 0.957947 6.55009L15.9056 1.62275C15.9128 1.62039 15.921 1.61767 15.933 1.62862C15.945 1.63965 15.943 1.64801 15.9413 1.65545Z" fill="black"/>
</svg>
